<svg xmlns="http://www.w3.org/2000/svg"
    viewBox="0 0 128 160" x="0px" y="0px">
    <path d="m16.38,113.02h95.29c1.32,0,2.38-1.07,2.38-2.38V15.34c0-1.32-1.07-2.38-2.38-2.38H16.38c-1.32,0-2.38,1.07-2.38,2.38v95.29c0,1.32,1.07,2.38,2.38,2.38Zm2.38-95.29h90.53v90.53H18.76V17.73Z"/>
    <path d="m47.35,24.87c0-1.32-1.07-2.38-2.38-2.38h-19.06s0,0,0,0c-.31,0-.62.06-.91.18-.27.11-.51.28-.72.48-.02.02-.04.02-.05.04-.03.03-.04.06-.06.09-.18.2-.34.42-.45.68-.12.29-.19.61-.18.92v19.05c0,1.32,1.07,2.38,2.38,2.38s2.38-1.07,2.38-2.38v-13.31l14.99,14.99c.47.47,1.07.7,1.68.7s1.22-.23,1.68-.7c.93-.93.93-2.44,0-3.37l-14.99-14.99h13.31c1.32,0,2.38-1.07,2.38-2.38Z"/>
    <path d="m102.14,79.67c-1.32,0-2.38,1.07-2.38,2.38v13.31l-14.99-14.99c-.93-.93-2.44-.93-3.37,0-.93.93-.93,2.44,0,3.37l14.99,14.99h-13.31c-1.32,0-2.38,1.07-2.38,2.38s1.07,2.38,2.38,2.38h19.06s0,0,0,0c0,0,0,0,0,0,.31,0,.62-.06.91-.18.27-.11.51-.28.72-.48.02-.02.04-.02.05-.04.03-.03.04-.06.06-.09.18-.2.34-.42.45-.68.12-.29.19-.61.18-.92v-19.05c0-1.32-1.07-2.38-2.38-2.38Z"/>

<!--    <text x="0" y="143" fill="#000000" font-size="5px" font-weight="bold" font-family="'Helvetica Neue', Helvetica, Arial-Unicode, Arial, Sans-serif">Created by Katerine Melina</text><text x="0" y="148" fill="#000000" font-size="5px" font-weight="bold" font-family="'Helvetica Neue', Helvetica, Arial-Unicode, Arial, Sans-serif">from the Noun Project</text>-->

</svg>
