<svg width="29" height="29" viewBox="0 0 29 29" fill="none" xmlns="http://www.w3.org/2000/svg">
<path fill-rule="evenodd" clip-rule="evenodd" d="M3.05008 14.3795C3.05028 12.1771 3.68598 10.0215 4.88089 8.17141C6.0758 6.32133 7.77916 4.85533 9.78658 3.94931C11.794 3.0433 14.0202 2.73576 16.1981 3.0636C18.376 3.39143 20.413 4.34073 22.0647 5.79756C23.7165 7.2544 24.9128 9.15689 25.5101 11.2768C26.1074 13.3966 26.0803 15.6438 25.4321 17.7487C24.784 19.8536 23.5422 21.7267 21.8559 23.1433C20.1695 24.56 18.1102 25.4599 15.9251 25.7352V17.2406H18.7862C19.1656 17.2406 19.5295 17.0899 19.7978 16.8216C20.066 16.5533 20.2168 16.1894 20.2168 15.81C20.2168 15.4306 20.066 15.0668 19.7978 14.7985C19.5295 14.5302 19.1656 14.3795 18.7862 14.3795H15.9251V11.5184C15.9251 11.139 16.0758 10.7751 16.3441 10.5068C16.6124 10.2385 16.9762 10.0878 17.3556 10.0878H18.0709C18.4503 10.0878 18.8142 9.93709 19.0825 9.66881C19.3508 9.40053 19.5015 9.03666 19.5015 8.65725C19.5015 8.27785 19.3508 7.91398 19.0825 7.6457C18.8142 7.37742 18.4503 7.2267 18.0709 7.2267H17.3556C16.2174 7.2267 15.1258 7.67885 14.321 8.4837C13.5161 9.28854 13.064 10.3801 13.064 11.5184V14.3795H10.2029C9.82345 14.3795 9.45959 14.5302 9.19131 14.7985C8.92302 15.0668 8.7723 15.4306 8.7723 15.81C8.7723 16.1894 8.92302 16.5533 9.19131 16.8216C9.45959 17.0899 9.82345 17.2406 10.2029 17.2406H13.064V25.7352C10.2983 25.3865 7.75492 24.0404 5.9112 21.9496C4.06747 19.8588 3.05013 17.1671 3.05008 14.3795ZM14.4945 28.685C22.3955 28.685 28.8001 22.2804 28.8001 14.3795C28.8001 6.47852 22.3955 0.0739136 14.4945 0.0739136C6.59357 0.0739136 0.188965 6.47852 0.188965 14.3795C0.188965 22.2804 6.59357 28.685 14.4945 28.685Z" fill="black" fill-opacity="0.7"/>
</svg>
