<svg width="26" height="27" viewBox="0 0 26 27" fill="none" xmlns="http://www.w3.org/2000/svg">
<path fill-rule="evenodd" clip-rule="evenodd" d="M18.8477 0.504211C20.7448 0.504211 22.5641 1.25781 23.9055 2.59921C25.2469 3.94062 26.0005 5.75996 26.0005 7.65699V19.1014C26.0005 20.9985 25.2469 22.8178 23.9055 24.1592C22.5641 25.5006 20.7448 26.2542 18.8477 26.2542H7.40327C5.50624 26.2542 3.6869 25.5006 2.34549 24.1592C1.00408 22.8178 0.250488 20.9985 0.250488 19.1014V7.65699C0.250488 5.75996 1.00408 3.94062 2.34549 2.59921C3.6869 1.25781 5.50624 0.504211 7.40327 0.504211H18.8477ZM18.8477 3.36532H7.40327C6.26505 3.36532 5.17345 3.81748 4.3686 4.62232C3.56376 5.42717 3.1116 6.51877 3.1116 7.65699V19.1014C3.1116 20.2397 3.56376 21.3313 4.3686 22.1361C5.17345 22.941 6.26505 23.3931 7.40327 23.3931H18.8477C19.9859 23.3931 21.0776 22.941 21.8824 22.1361C22.6872 21.3313 23.1394 20.2397 23.1394 19.1014V7.65699C23.1394 6.51877 22.6872 5.42717 21.8824 4.62232C21.0776 3.81748 19.9859 3.36532 18.8477 3.36532ZM13.1255 7.65699C14.6431 7.65699 16.0986 8.25987 17.1717 9.33299C18.2448 10.4061 18.8477 11.8616 18.8477 13.3792C18.8477 14.8968 18.2448 16.3523 17.1717 17.4254C16.0986 18.4986 14.6431 19.1014 13.1255 19.1014C11.6079 19.1014 10.1524 18.4986 9.07927 17.4254C8.00615 16.3523 7.40327 14.8968 7.40327 13.3792C7.40327 11.8616 8.00615 10.4061 9.07927 9.33299C10.1524 8.25987 11.6079 7.65699 13.1255 7.65699ZM13.1255 10.5181C12.3667 10.5181 11.6389 10.8195 11.1024 11.3561C10.5658 11.8927 10.2644 12.6204 10.2644 13.3792C10.2644 14.138 10.5658 14.8658 11.1024 15.4023C11.6389 15.9389 12.3667 16.2403 13.1255 16.2403C13.8843 16.2403 14.612 15.9389 15.1486 15.4023C15.6852 14.8658 15.9866 14.138 15.9866 13.3792C15.9866 12.6204 15.6852 11.8927 15.1486 11.3561C14.612 10.8195 13.8843 10.5181 13.1255 10.5181ZM19.563 5.51116C19.9424 5.51116 20.3063 5.66188 20.5746 5.93016C20.8428 6.19844 20.9936 6.56231 20.9936 6.94171C20.9936 7.32112 20.8428 7.68499 20.5746 7.95327C20.3063 8.22155 19.9424 8.37227 19.563 8.37227C19.1836 8.37227 18.8197 8.22155 18.5514 7.95327C18.2832 7.68499 18.1324 7.32112 18.1324 6.94171C18.1324 6.56231 18.2832 6.19844 18.5514 5.93016C18.8197 5.66188 19.1836 5.51116 19.563 5.51116Z" fill="black" fill-opacity="0.7"/>
</svg>
