<svg width="25" height="27" viewBox="0 0 25 27" fill="none" xmlns="http://www.w3.org/2000/svg">
<path fill-rule="evenodd" clip-rule="evenodd" d="M3.0411 9.94845C3.0411 7.30995 4.0515 4.77953 5.85002 2.91383C7.64854 1.04814 10.0879 0 12.6314 0C15.1749 0 17.6142 1.04814 19.4127 2.91383C21.2112 4.77953 22.2216 7.30995 22.2216 9.94845V15.2979L24.7178 20.4767C24.8327 20.7151 24.887 20.98 24.8755 21.2462C24.8639 21.5125 24.7869 21.7712 24.6519 21.9979C24.5168 22.2246 24.3281 22.4117 24.1037 22.5415C23.8793 22.6713 23.6266 22.7393 23.3697 22.7393H17.9389C17.6341 23.959 16.9476 25.0393 15.9869 25.8104C15.0263 26.5816 13.846 27 12.6314 27C11.4167 27 10.2364 26.5816 9.27578 25.8104C8.31515 25.0393 7.62858 23.959 7.32383 22.7393H1.89301C1.63609 22.7393 1.38344 22.6713 1.15903 22.5415C0.934627 22.4117 0.745926 22.2246 0.61085 21.9979C0.475774 21.7712 0.398809 21.5125 0.387265 21.2462C0.37572 20.98 0.42998 20.7151 0.54489 20.4767L3.0411 15.2979V9.94845ZM10.2585 22.7393C10.499 23.1714 10.8449 23.5302 11.2614 23.7796C11.6779 24.0291 12.1504 24.1604 12.6314 24.1604C13.1123 24.1604 13.5848 24.0291 14.0013 23.7796C14.4179 23.5302 14.7638 23.1714 15.0043 22.7393H10.2585ZM12.6314 2.84241C10.8146 2.84241 9.0722 3.59108 7.78754 4.92372C6.50289 6.25636 5.78117 8.06381 5.78117 9.94845V15.2979C5.78114 15.7389 5.68217 16.1739 5.49209 16.5684L3.88915 19.8969H21.3749L19.772 16.5684C19.5815 16.174 19.482 15.739 19.4815 15.2979V9.94845C19.4815 8.06381 18.7598 6.25636 17.4752 4.92372C16.1905 3.59108 14.4481 2.84241 12.6314 2.84241Z" fill="#09244B" fill-opacity="0.8"/>
</svg>
