<svg width="29" height="24" viewBox="0 0 29 24" fill="none" xmlns="http://www.w3.org/2000/svg">
<path fill-rule="evenodd" clip-rule="evenodd" d="M6.2173 6.37485C6.2173 5.60332 6.35827 4.83935 6.63216 4.12656C6.90605 3.41377 7.30749 2.76611 7.81357 2.22056C8.31964 1.67501 8.92044 1.24225 9.58167 0.947006C10.2429 0.651756 10.9516 0.499794 11.6673 0.499794C12.383 0.499794 13.0917 0.651756 13.7529 0.947006C14.4141 1.24225 15.0149 1.67501 15.521 2.22056C16.0271 2.76611 16.4285 3.41377 16.7024 4.12656C16.9763 4.83935 17.1173 5.60332 17.1173 6.37485C17.1173 7.93301 16.5431 9.42735 15.521 10.5291C14.4989 11.6309 13.1127 12.2499 11.6673 12.2499C10.2219 12.2499 8.83563 11.6309 7.81357 10.5291C6.7915 9.42735 6.2173 7.93301 6.2173 6.37485ZM11.6673 3.11093C10.8643 3.11093 10.0941 3.4548 9.52633 4.06691C8.95851 4.67901 8.63952 5.5092 8.63952 6.37485C8.63952 7.24049 8.95851 8.07068 9.52633 8.68279C10.0941 9.29489 10.8643 9.63876 11.6673 9.63876C12.4703 9.63876 13.2404 9.29489 13.8082 8.68279C14.3761 8.07068 14.695 7.24049 14.695 6.37485C14.695 5.5092 14.3761 4.67901 13.8082 4.06691C13.2404 3.4548 12.4703 3.11093 11.6673 3.11093ZM11.6673 13.5555C14.081 13.5555 16.2755 14.3492 17.8887 15.4694C18.6965 16.0308 19.3881 16.6927 19.8907 17.4147C20.3836 18.1263 20.7506 18.9814 20.7506 19.8966C20.7506 20.8823 20.3267 21.6722 19.7042 22.2427C19.1168 22.778 18.3514 23.1253 17.5605 23.3642C15.9703 23.8433 13.8667 24 11.6673 24C9.46791 24 7.36422 23.8433 5.77525 23.3642C4.98319 23.1253 4.21777 22.778 3.63159 22.2427C3.00666 21.6735 2.58398 20.8823 2.58398 19.8966C2.58398 18.9801 2.95095 18.1263 3.44387 17.416C3.94648 16.6927 4.63802 16.0295 5.44583 15.4707C7.05902 14.3479 9.25355 13.5555 11.6673 13.5555ZM11.6673 16.1666C9.73315 16.1666 7.99157 16.8089 6.75625 17.6654C6.13858 18.0936 5.67836 18.5558 5.38285 18.9801C5.08007 19.4162 5.0062 19.7321 5.0062 19.8966C5.0062 19.9932 5.02436 20.0924 5.19634 20.2491C5.40586 20.4423 5.79463 20.6591 6.42682 20.8497C7.68638 21.2283 9.51878 21.3889 11.6673 21.3889C13.8158 21.3889 15.6482 21.2283 16.9077 20.8497C17.5399 20.6591 17.9287 20.4423 18.1382 20.2491C18.3102 20.0924 18.3284 19.9932 18.3284 19.8966C18.3284 19.7321 18.2545 19.4162 17.9517 18.9801C17.6562 18.5558 17.196 18.0936 16.5783 17.6654C15.343 16.8089 13.6014 16.1666 11.6673 16.1666ZM21.9617 13.5555C23.5603 13.5555 25.0113 14.1247 26.0794 14.9276C27.075 15.6757 28.0172 16.8559 28.0172 18.2176C28.0172 18.984 27.7108 19.6185 27.2445 20.0794C26.8122 20.5076 26.2647 20.7687 25.7379 20.9411C24.6843 21.2844 23.3278 21.3889 21.9617 21.3889H21.7158C21.8733 20.9345 21.9617 20.4358 21.9617 19.8966C21.9617 19.6042 21.935 19.3222 21.889 19.048L21.8321 18.7777H21.9617C23.2709 18.7777 24.3355 18.6707 25.0367 18.4422C25.354 18.3378 25.5175 18.2333 25.5877 18.1733C25.5526 18.0192 25.3637 17.5727 24.6939 17.0701C24.11 16.6422 23.4466 16.3567 22.7498 16.2336C22.0531 16.1105 21.3398 16.1527 20.6597 16.3572C20.0735 15.6067 19.386 14.9554 18.6202 14.425C19.6546 13.8543 20.7997 13.5563 21.9617 13.5555ZM18.3284 8.3332C18.3284 7.29442 18.7112 6.29819 19.3925 5.56367C20.0739 4.82915 20.9981 4.4165 21.9617 4.4165C22.9253 4.4165 23.8495 4.82915 24.5308 5.56367C25.2122 6.29819 25.595 7.29442 25.595 8.3332C25.595 9.37197 25.2122 10.3682 24.5308 11.1027C23.8495 11.8372 22.9253 12.2499 21.9617 12.2499C20.9981 12.2499 20.0739 11.8372 19.3925 11.1027C18.7112 10.3682 18.3284 9.37197 18.3284 8.3332ZM21.9617 7.02763C21.6405 7.02763 21.3324 7.16518 21.1053 7.41002C20.8782 7.65486 20.7506 7.98694 20.7506 8.3332C20.7506 8.67945 20.8782 9.01153 21.1053 9.25637C21.3324 9.50121 21.6405 9.63876 21.9617 9.63876C22.2829 9.63876 22.5909 9.50121 22.8181 9.25637C23.0452 9.01153 23.1728 8.67945 23.1728 8.3332C23.1728 7.98694 23.0452 7.65486 22.8181 7.41002C22.5909 7.16518 22.2829 7.02763 21.9617 7.02763Z" fill="#09244B" fill-opacity="0.8"/>
</svg>
