<svg width="29" height="24" viewBox="0 0 29 24" fill="none" xmlns="http://www.w3.org/2000/svg">
<path d="M14.3056 0.934814C15.5287 0.934814 16.7833 0.966287 17.9993 1.01779L19.4355 1.08645L20.8103 1.168L22.0978 1.25526L23.2737 1.34682C24.5499 1.44449 25.7507 1.98906 26.6649 2.88472C27.5791 3.78038 28.1482 4.96976 28.2721 6.24361L28.3293 6.8516L28.4366 8.1534C28.5367 9.50242 28.6111 10.973 28.6111 12.3793C28.6111 13.7855 28.5367 15.2561 28.4366 16.6051L28.3293 17.9069C28.3107 18.1158 28.2921 18.3175 28.2721 18.5149C28.1482 19.789 27.5789 20.9786 26.6644 21.8743C25.7498 22.7699 24.5487 23.3144 23.2723 23.4117L22.0992 23.5019L20.8117 23.5905L19.4355 23.6721L17.9993 23.7408C16.7687 23.7942 15.5372 23.8219 14.3056 23.8237C13.0739 23.8219 11.8424 23.7942 10.6119 23.7408L9.17559 23.6721L7.80083 23.5905L6.51332 23.5019L5.33741 23.4117C4.06128 23.3141 2.86047 22.7695 1.94623 21.8738C1.03199 20.9782 0.462891 19.7888 0.339042 18.5149L0.28182 17.9069L0.174528 16.6051C0.065144 15.1991 0.00692964 13.7895 0 12.3793C0 10.973 0.0743889 9.50242 0.174528 8.1534L0.28182 6.8516C0.300417 6.64274 0.319014 6.44103 0.339042 6.24361C0.462843 4.96998 1.03174 3.78079 1.94569 2.88515C2.85964 1.98952 4.0601 1.44481 5.33598 1.34682L6.51046 1.25526L7.79796 1.168L9.17416 1.08645L10.6104 1.01779C11.8414 0.964331 13.0734 0.936667 14.3056 0.934814ZM14.3056 3.79593C13.1254 3.79593 11.9108 3.8274 10.7292 3.87604L9.33009 3.94328L7.9868 4.02196L6.72505 4.10779L5.56916 4.19792C4.96164 4.24102 4.38901 4.49783 3.95276 4.92282C3.51651 5.34781 3.24482 5.91353 3.18585 6.51971C3.01847 8.24925 2.86111 10.4022 2.86111 12.3793C2.86111 14.3563 3.01847 16.5093 3.18585 18.2388C3.30745 19.4863 4.29739 20.4562 5.56916 20.5606L6.72505 20.6493L7.9868 20.7352L9.33009 20.8153L10.7292 20.8825C11.9108 20.9311 13.1254 20.9626 14.3056 20.9626C15.4858 20.9626 16.7003 20.9311 17.882 20.8825L19.281 20.8153L20.6243 20.7366L21.8861 20.6508L23.042 20.5606C23.6495 20.5175 24.2221 20.2607 24.6584 19.8357C25.0946 19.4107 25.3663 18.845 25.4253 18.2388C25.5927 16.5093 25.75 14.3563 25.75 12.3793C25.75 10.4022 25.5927 8.24925 25.4253 6.51971C25.3663 5.91353 25.0946 5.34781 24.6584 4.92282C24.2221 4.49783 23.6495 4.24102 23.042 4.19792L21.8861 4.10922L20.6243 4.02339L19.281 3.94328L17.882 3.87604C16.6905 3.82478 15.4981 3.79807 14.3056 3.79593ZM11.4445 8.91017C11.4444 8.77035 11.4784 8.63263 11.5437 8.50898C11.6089 8.38532 11.7034 8.27948 11.8189 8.20066C11.9344 8.12184 12.0674 8.07242 12.2063 8.05671C12.3452 8.04099 12.4859 8.05945 12.6161 8.11049L12.732 8.16771L18.7403 11.6354C18.8599 11.7044 18.9612 11.8013 19.0353 11.9178C19.1095 12.0343 19.1545 12.167 19.1664 12.3047C19.1784 12.4423 19.1569 12.5807 19.1039 12.7083C19.0509 12.8359 18.9679 12.9487 18.8619 13.0373L18.7403 13.1232L12.732 16.5923C12.6109 16.6624 12.4745 16.7018 12.3347 16.7072C12.1949 16.7125 12.0559 16.6836 11.9298 16.623C11.8037 16.5623 11.6943 16.4718 11.6112 16.3592C11.5282 16.2467 11.4738 16.1155 11.453 15.9771L11.4445 15.8484V8.91017Z" fill="black" fill-opacity="0.7"/>
</svg>
